<?xml version="1.0" standalone="no"?>
<!DOCTYPE svg PUBLIC "-//W3C//DTD SVG 20010904//EN"
 "http://www.w3.org/TR/2001/REC-SVG-20010904/DTD/svg10.dtd">
<svg version="1.0" xmlns="http://www.w3.org/2000/svg"
 width="574.000000pt" height="140.000000pt" viewBox="0 0 574.000000 140.000000"
 preserveAspectRatio="xMidYMid meet">

<g transform="translate(0.000000,140.000000) scale(0.100000,-0.100000)"
fill="#000000" stroke="none">
<path d="M90 700 l0 -610 611 0 611 0 -7 23 c-4 12 -5 38 -4 57 2 19 4 215 4
435 0 380 -4 452 -31 553 -5 18 -2 22 15 22 19 0 21 5 21 65 l0 65 -610 0
-610 0 0 -610z"/>
<path d="M1560 1150 c0 -16 5 -30 10 -30 6 0 10 -16 10 -35 0 -19 4 -35 9 -35
4 0 11 -28 15 -62 3 -35 11 -64 16 -66 6 -2 10 -21 10 -43 0 -21 5 -39 10 -39
6 0 10 -16 10 -35 0 -19 5 -35 10 -35 6 0 10 -9 10 -20 0 -17 7 -20 50 -20 43
0 50 3 50 20 0 11 5 20 10 20 6 0 10 16 10 35 0 19 5 35 10 35 6 0 10 12 10
26 0 23 20 54 34 54 3 0 6 -13 6 -30 0 -16 5 -30 10 -30 6 0 10 -16 10 -35 0
-19 5 -35 10 -35 6 0 10 -13 10 -30 0 -29 2 -30 46 -30 53 0 74 16 74 59 0 17
5 31 10 31 6 0 10 18 10 40 0 22 5 40 10 40 6 0 10 11 10 25 0 14 4 25 9 25 5
0 12 34 16 75 4 41 11 75 16 75 5 0 9 18 9 40 l0 40 -44 0 c-66 0 -76 -6 -76
-51 0 -21 -4 -39 -10 -39 -5 0 -10 -17 -11 -37 0 -21 -4 -56 -8 -78 l-9 -40
-1 43 c0 23 -5 42 -11 42 -5 0 -10 11 -10 25 0 14 -4 25 -10 25 -5 0 -10 18
-10 40 0 22 -4 40 -10 40 -5 0 -10 7 -10 15 0 11 -12 15 -50 15 -47 0 -50 -2
-50 -25 0 -14 -4 -25 -10 -25 -5 0 -10 -18 -10 -40 0 -22 -4 -40 -10 -40 -5 0
-10 -11 -10 -25 0 -14 -3 -25 -6 -25 -17 0 -34 34 -34 69 0 23 -4 41 -10 41
-5 0 -10 16 -10 35 l0 35 -60 0 -60 0 0 -30z"/>
<path d="M3336 1155 c-16 -16 -26 -37 -26 -55 0 -17 -4 -30 -10 -30 -5 0 -10
-13 -10 -30 0 -16 5 -30 10 -30 6 0 10 -12 10 -27 0 -45 13 -54 79 -60 33 -3
61 -10 61 -14 0 -5 7 -9 16 -9 15 0 44 -23 44 -35 0 -4 -7 -14 -16 -22 -18
-19 -116 -21 -122 -4 -4 13 -62 15 -62 2 0 -5 -9 -13 -20 -16 -11 -3 -20 -11
-20 -16 0 -13 46 -59 60 -59 5 0 10 -4 10 -10 0 -6 40 -10 100 -10 60 0 100 4
100 10 0 6 5 10 10 10 6 0 22 11 35 25 22 21 25 33 25 95 0 40 -4 70 -10 70
-5 0 -10 9 -10 20 0 11 -7 20 -15 20 -8 0 -15 5 -15 10 0 6 -18 10 -40 10 -22
0 -40 5 -40 10 0 6 -16 10 -35 10 -24 0 -35 5 -35 15 0 8 -5 15 -11 15 -6 0
-4 7 5 15 8 8 21 15 29 15 9 0 18 6 21 13 5 10 7 10 12 0 3 -7 19 -13 35 -13
16 0 29 -4 29 -10 0 -5 7 -10 15 -10 8 0 15 4 15 10 0 5 11 20 25 34 30 30 30
32 8 54 -13 13 -40 18 -123 20 -105 4 -108 3 -134 -23z"/>
<path d="M2130 1061 c0 -5 -9 -13 -20 -16 -28 -9 -25 -21 15 -60 39 -40 51
-43 60 -15 9 27 41 25 70 -5 14 -13 25 -27 25 -30 0 -3 -32 -5 -70 -5 -62 0
-74 -3 -95 -25 -36 -35 -36 -115 0 -150 23 -24 30 -25 145 -25 l120 0 0 125
c0 77 -4 125 -10 125 -5 0 -10 13 -10 29 0 21 -6 32 -20 36 -11 3 -20 11 -20
16 0 5 -43 9 -95 9 -52 0 -95 -4 -95 -9z m150 -215 c0 -17 -22 -26 -61 -26
-32 0 -35 4 -16 25 16 19 77 20 77 1z"/>
<path d="M2420 900 l0 -170 55 0 55 0 0 108 c0 92 3 112 19 130 22 26 28 27
47 8 10 -11 14 -43 14 -130 l0 -116 50 0 50 0 0 105 c0 100 1 107 25 131 22
22 27 23 40 10 12 -11 15 -41 15 -130 l0 -116 50 0 50 0 0 150 c0 187 -2 190
-115 190 -43 0 -75 -4 -75 -10 0 -5 -7 -10 -15 -10 -8 0 -15 5 -15 10 0 6 -48
10 -125 10 l-125 0 0 -170z"/>
<path d="M2960 845 l0 -225 50 0 50 0 1 68 c0 37 3 61 6 55 3 -9 28 -13 73
-13 60 0 69 3 75 20 3 11 11 20 16 20 5 0 9 56 9 130 0 161 -5 170 -104 170
-42 0 -66 -4 -69 -12 -4 -10 -6 -10 -6 0 -1 8 -18 12 -51 12 l-50 0 0 -225z
m166 131 c20 -21 20 -142 -1 -150 -23 -8 -45 4 -45 25 0 10 -4 19 -10 19 -5 0
-10 14 -10 30 0 17 5 30 10 30 6 0 10 7 10 15 0 14 19 44 28 45 2 0 10 -6 18
-14z"/>
<path d="M3710 1061 c0 -5 -9 -12 -20 -16 -15 -5 -21 -19 -26 -56 -4 -27 -10
-49 -15 -49 -5 0 -9 -22 -9 -50 0 -27 5 -50 10 -50 6 0 10 -11 10 -24 0 -13
13 -38 29 -55 28 -30 32 -31 115 -31 51 0 86 4 86 10 0 6 5 10 11 10 11 0 39
25 39 35 0 3 -9 15 -19 26 -17 19 -27 20 -78 14 -50 -6 -62 -4 -82 14 l-24 21
101 0 102 0 0 60 c0 33 -4 60 -9 60 -5 0 -12 16 -15 35 -5 26 -12 35 -26 35
-11 0 -20 5 -20 10 0 6 -33 10 -80 10 -44 0 -80 -4 -80 -9z m105 -96 c14 -13
25 -27 25 -30 0 -3 -18 -5 -40 -5 -42 0 -53 17 -27 45 16 18 14 19 42 -10z"/>
<path d="M3990 900 l0 -170 50 0 50 0 0 105 c0 101 1 107 27 133 17 17 28 22
31 14 6 -19 46 -14 62 8 8 11 18 20 22 20 4 0 8 -9 8 -20 0 -11 5 -20 10 -20
6 0 10 -11 10 -25 0 -14 5 -25 10 -25 6 0 10 -13 10 -30 0 -16 5 -30 10 -30 6
0 10 -11 10 -25 0 -14 5 -25 10 -25 6 0 10 -12 10 -26 0 -38 22 -54 74 -54 44
0 46 1 46 30 0 17 5 30 10 30 6 0 10 11 10 25 0 14 4 25 9 25 5 0 12 25 16 55
3 30 11 55 16 55 5 0 9 14 9 30 0 17 5 30 10 30 6 0 10 9 10 20 0 11 5 20 10
20 6 0 10 5 10 10 0 6 -27 10 -60 10 -47 0 -60 -3 -60 -15 0 -8 -4 -15 -10
-15 -5 0 -10 -13 -10 -30 0 -16 -4 -30 -10 -30 -5 0 -10 -12 -10 -26 0 -14 -4
-23 -10 -19 -5 3 -10 19 -10 36 0 16 -4 29 -10 29 -5 0 -10 9 -10 21 0 41 -22
49 -138 49 -79 0 -112 -4 -115 -12 -4 -10 -6 -10 -6 0 -1 8 -18 12 -51 12
l-50 0 0 -170z"/>
<path d="M4598 1051 c-10 -10 -18 -25 -18 -34 0 -10 -4 -17 -10 -17 -5 0 -10
-13 -10 -30 0 -16 -4 -30 -10 -30 -5 0 -10 -22 -10 -50 0 -27 5 -50 10 -50 6
0 10 -9 10 -21 0 -11 6 -26 13 -33 6 -8 19 -23 27 -35 13 -19 24 -21 102 -21
52 0 88 4 88 10 0 6 9 10 19 10 17 0 31 18 31 40 0 5 -8 16 -17 25 -13 14 -28
16 -78 10 -52 -5 -64 -3 -84 14 l-24 21 103 0 103 0 -5 77 c-3 45 -10 79 -17
81 -6 2 -11 10 -11 18 0 8 -9 14 -20 14 -11 0 -20 5 -20 10 0 6 -32 10 -77 9
-61 0 -82 -4 -95 -18z m117 -86 c14 -13 25 -27 25 -30 0 -3 -18 -5 -40 -5 -42
0 -53 17 -27 45 16 18 14 19 42 -10z"/>
<path d="M4890 900 l0 -170 50 0 50 0 0 105 c0 101 1 107 27 133 17 17 28 22
31 14 7 -23 43 -12 78 23 31 31 33 37 20 50 -19 19 -142 21 -149 3 -4 -10 -6
-10 -6 0 -1 8 -18 12 -51 12 l-50 0 0 -170z"/>
<path d="M1560 560 c0 -11 -4 -20 -10 -20 -5 0 -10 -9 -10 -20 0 -11 -4 -20
-10 -20 -5 0 -10 -11 -10 -25 0 -14 -4 -25 -10 -25 -5 0 -10 -16 -10 -35 0
-33 2 -35 35 -35 28 0 35 4 35 20 0 13 7 20 20 20 13 0 20 -7 20 -20 0 -16 7
-20 35 -20 33 0 35 2 35 35 0 19 -4 35 -10 35 -5 0 -10 7 -10 15 0 8 -4 15
-10 15 -5 0 -10 14 -10 30 0 17 -4 30 -10 30 -5 0 -10 9 -10 20 0 16 -7 20
-30 20 -23 0 -30 -4 -30 -20z"/>
<path d="M2090 480 l0 -100 35 0 34 0 4 58 3 57 2 -57 c2 -57 2 -58 32 -58
l30 0 0 80 0 80 -35 0 c-28 0 -35 4 -35 20 0 16 -7 20 -35 20 l-35 0 0 -100z"/>
<path d="M2520 480 l0 -100 30 0 c28 0 30 2 30 40 0 38 2 40 29 40 51 0 61 9
61 52 0 55 -17 68 -89 68 l-61 0 0 -100z m90 35 c0 -8 -7 -15 -15 -15 -8 0
-15 7 -15 15 0 8 7 15 15 15 8 0 15 -7 15 -15z"/>
<path d="M2680 480 l0 -100 35 0 c34 0 35 1 35 40 0 22 5 40 10 40 6 0 10 -18
10 -40 0 -39 1 -40 35 -40 l35 0 0 100 0 100 -35 0 c-34 0 -35 -1 -35 -40 0
-22 -4 -40 -10 -40 -5 0 -10 18 -10 40 0 39 -1 40 -35 40 l-35 0 0 -100z"/>
<path d="M2850 480 l0 -100 30 0 c28 0 30 2 30 40 0 40 0 40 38 40 25 0 43 7
55 20 18 22 23 60 8 60 -5 0 -13 9 -16 20 -6 17 -15 20 -76 20 l-69 0 0 -100z
m90 35 c0 -8 -7 -15 -15 -15 -8 0 -15 7 -15 15 0 8 7 15 15 15 8 0 15 -7 15
-15z"/>
<path d="M3140 480 l0 -100 35 0 c28 0 35 4 35 20 0 16 7 20 30 20 23 0 30 -4
30 -20 0 -16 7 -20 30 -20 l30 0 0 100 0 100 -30 0 c-23 0 -30 -4 -30 -20 0
-11 -4 -20 -9 -20 -5 0 -12 -10 -14 -22 l-4 -23 -2 23 c0 12 -5 22 -11 22 -5
0 -10 9 -10 20 0 17 -7 20 -40 20 l-40 0 0 -100z"/>
<path d="M3480 560 c-8 -11 -24 -20 -37 -20 -17 0 -23 -7 -26 -32 l-4 -33 -1
33 c-2 30 -5 32 -37 32 -33 0 -35 -2 -35 -35 0 -19 5 -35 10 -35 6 0 10 -11
10 -25 0 -14 5 -25 10 -25 6 0 10 -11 10 -25 0 -18 -5 -25 -20 -25 -13 0 -20
-7 -20 -20 0 -17 7 -20 45 -20 33 0 45 4 45 15 0 8 5 15 10 15 6 0 10 9 10 20
0 11 5 20 10 20 6 0 10 -4 10 -10 0 -5 25 -10 55 -10 46 0 60 4 80 25 25 24
34 65 15 65 -5 0 -10 7 -10 15 0 10 -11 15 -35 15 -27 0 -35 4 -34 18 0 10 3
12 6 5 12 -31 63 -2 63 36 0 19 -6 21 -58 21 -46 0 -60 -4 -72 -20z m48 -100
c15 0 22 -6 21 -17 0 -11 -3 -13 -6 -5 -2 6 -20 12 -38 12 -18 0 -36 -6 -38
-12 -3 -7 -6 -2 -6 11 -1 19 3 22 22 17 12 -3 32 -6 45 -6z"/>
<path d="M3653 565 c-18 -20 -17 -152 1 -171 8 -8 33 -14 55 -14 23 0 41 -4
41 -10 0 -17 28 -11 34 8 3 9 4 51 3 93 -2 55 -7 81 -19 93 -21 20 -98 21
-115 1z m77 -79 c0 -9 -7 -16 -15 -16 -10 0 -15 10 -15 31 0 27 2 29 15 15 8
-8 15 -22 15 -30z"/>
<path d="M3800 480 l0 -100 70 0 c68 0 70 1 70 25 0 22 -4 25 -35 25 l-35 0 0
75 0 75 -35 0 -35 0 0 -100z"/>
<path d="M4590 535 c0 -25 5 -45 10 -45 6 0 10 -16 10 -35 0 -19 5 -35 10 -35
6 0 10 -9 10 -20 0 -16 7 -20 34 -20 30 0 34 4 42 33 l8 32 3 -32 c4 -29 8
-33 34 -33 39 0 59 20 59 59 0 17 5 31 10 31 6 0 10 -20 10 -45 0 -45 0 -45
35 -45 l35 0 0 100 0 100 -56 0 c-57 0 -78 -11 -87 -46 -3 -12 -5 -7 -6 14 -1
27 -5 32 -27 32 -28 0 -49 -17 -57 -46 -3 -12 -5 -7 -6 14 -1 30 -3 32 -36 32
-35 0 -35 0 -35 -45z"/>
<path d="M5130 560 c0 -19 -7 -20 -110 -20 l-110 0 0 -80 0 -80 30 0 c28 0 29
1 33 58 l3 57 2 -57 2 -58 105 0 105 0 0 100 0 100 -30 0 c-23 0 -30 -4 -30
-20z"/>
<path d="M1690 435 l0 -105 30 0 c25 0 30 4 30 25 l0 25 104 0 c74 0 106 4
110 13 5 10 7 10 12 0 3 -8 25 -13 55 -13 42 0 49 3 49 19 0 44 -30 70 -43 39
-3 -7 -5 3 -5 22 0 19 2 29 5 23 13 -32 43 -6 43 38 0 16 -7 19 -49 19 -30 0
-52 -5 -55 -12 -5 -10 -7 -10 -12 0 -4 9 -42 12 -140 12 l-134 0 0 -105z m67
8 c-3 -10 -5 -2 -5 17 0 19 2 27 5 18 2 -10 2 -26 0 -35z m93 37 c0 -5 -4 -10
-10 -10 -5 0 -10 5 -10 10 0 6 5 10 10 10 6 0 10 -4 10 -10z"/>
<path d="M2253 525 c-18 -20 -17 -113 1 -131 18 -18 102 -19 109 -1 3 6 6 -1
6 -16 1 -25 4 -28 29 -25 23 3 27 8 30 41 3 37 3 37 -35 38 -21 0 -32 3 -25 6
17 7 15 71 -2 89 -19 18 -97 18 -113 -1z m74 -91 c-3 -3 -12 -4 -19 -1 -8 3
-5 6 6 6 11 1 17 -2 13 -5z"/>
<path d="M4003 525 c-15 -17 -17 -65 -3 -65 6 0 10 -7 10 -15 0 -8 -4 -15 -10
-15 -5 0 -10 -11 -10 -25 0 -24 3 -25 60 -25 33 0 60 4 60 10 0 6 9 10 20 10
11 0 20 -4 20 -10 0 -5 20 -10 45 -10 42 0 46 2 51 30 5 25 8 27 20 15 8 -7
14 -21 14 -29 0 -14 18 -16 121 -16 91 0 124 3 135 14 17 18 19 72 2 80 -10 5
-10 7 0 12 6 3 12 17 12 30 0 23 -3 24 -59 24 -38 0 -61 -4 -64 -12 -4 -10 -6
-10 -6 0 -1 7 -14 12 -31 12 -29 0 -30 -2 -30 -45 0 -33 -4 -45 -15 -45 -11 0
-15 12 -15 45 0 45 0 45 -35 45 -33 0 -35 -2 -36 -32 l-1 -33 -9 33 c-9 30
-13 32 -53 32 -26 0 -47 -5 -50 -12 -5 -10 -7 -10 -12 0 -8 17 -115 15 -131
-3z m74 -41 c-3 -3 -12 -4 -19 -1 -8 3 -5 6 6 6 11 1 17 -2 13 -5z m53 -4 c0
-5 -4 -10 -10 -10 -5 0 -10 5 -10 10 0 6 5 10 10 10 6 0 10 -4 10 -10z m297
-42 c-3 -8 -6 -5 -6 6 -1 11 2 17 5 13 3 -3 4 -12 1 -19z m-370 -4 c-3 -3 -12
-4 -19 -1 -8 3 -5 6 6 6 11 1 17 -2 13 -5z"/>
<path d="M5213 525 c-18 -20 -17 -113 1 -131 29 -29 106 -10 106 26 0 6 7 18
15 26 13 14 15 12 15 -11 0 -33 21 -55 54 -55 18 0 26 6 29 23 l4 22 2 -22 c1
-22 5 -23 92 -23 65 0 94 4 105 14 17 18 19 72 2 80 -10 5 -10 7 0 12 6 3 12
17 12 30 0 23 -2 24 -84 24 -80 0 -85 -1 -89 -22 l-4 -23 -2 23 c-1 21 -5 22
-71 22 l-70 0 -1 -32 c-1 -21 -3 -26 -6 -14 -3 11 -11 26 -18 33 -18 17 -77
16 -92 -2z m394 -41 c-3 -3 -12 -4 -19 -1 -8 3 -5 6 6 6 11 1 17 -2 13 -5z
m-80 -46 c-3 -8 -6 -5 -6 6 -1 11 2 17 5 13 3 -3 4 -12 1 -19z m60 -4 c-3 -3
-12 -4 -19 -1 -8 3 -5 6 6 6 11 1 17 -2 13 -5z"/>
<path d="M3010 390 c0 -33 3 -40 19 -40 38 0 51 11 51 46 0 32 -2 34 -35 34
-34 0 -35 -1 -35 -40z"/>
</g>
</svg>
